<?xml version="1.0" standalone="no"?><svg xmlns:xlink="http://www.w3.org/1999/xlink" xmlns="http://www.w3.org/2000/svg" viewBox="0 0 1000 750.0030364495403" preserveAspectRatio="xMaxYMax slice"><g transform="scale(1.5182247701407698)"><rect x="0" y="0" width="658.6666666666666" height="494" fill="#ffffff"/><g transform="translate(5.49,5.49) scale(2.1955) rotate(0)"><path d="M5 0H10L5 5L0 10V5L5 0Z" fill="#dfdf20"/><path d="M20 15V20H15L20 15Z" fill="#dfdf20"/><path d="M20 5V10L15 15L10 20H5L20 5Z" fill="#dfdf20"/><path d="M15 0H20L5 15.0002L0 20.0002V15.0002L15 0Z" fill="#dfdf20"/></g><g transform="translate(60.38,5.49) scale(2.1955) rotate(0)"><path d="M5 0H10L5 5L0 10V5L5 0Z" fill="#FF3565"/><path d="M20 15V20H15L20 15Z" fill="#FF3565"/><path d="M20 5V10L15 15L10 20H5L20 5Z" fill="#FF3565"/><path d="M15 0H20L5 15.0002L0 20.0002V15.0002L15 0Z" fill="#FF3565"/></g><g transform="translate(115.27,5.49) scale(2.1955) rotate(0)"><path d="M5 0H10L5 5L0 10V5L5 0Z" fill="#183FE1"/><path d="M20 15V20H15L20 15Z" fill="#183FE1"/><path d="M20 5V10L15 15L10 20H5L20 5Z" fill="#183FE1"/><path d="M15 0H20L5 15.0002L0 20.0002V15.0002L15 0Z" fill="#183FE1"/></g><g transform="translate(170.16,5.49) scale(2.1955) rotate(0)"><path d="M5 0H10L5 5L0 10V5L5 0Z" fill="#dfdf20"/><path d="M20 15V20H15L20 15Z" fill="#dfdf20"/><path d="M20 5V10L15 15L10 20H5L20 5Z" fill="#dfdf20"/><path d="M15 0H20L5 15.0002L0 20.0002V15.0002L15 0Z" fill="#dfdf20"/></g><g transform="translate(225.04,5.49) scale(2.1955) rotate(0)"><path d="M5 0H10L5 5L0 10V5L5 0Z" fill="#dfdf20"/><path d="M20 15V20H15L20 15Z" fill="#dfdf20"/><path d="M20 5V10L15 15L10 20H5L20 5Z" fill="#dfdf20"/><path d="M15 0H20L5 15.0002L0 20.0002V15.0002L15 0Z" fill="#dfdf20"/></g><g transform="translate(279.93,5.49) scale(2.1955) rotate(0)"><path d="M5 0H10L5 5L0 10V5L5 0Z" fill="#dfdf20"/><path d="M20 15V20H15L20 15Z" fill="#dfdf20"/><path d="M20 5V10L15 15L10 20H5L20 5Z" fill="#dfdf20"/><path d="M15 0H20L5 15.0002L0 20.0002V15.0002L15 0Z" fill="#dfdf20"/></g><g transform="translate(334.82,5.49) scale(2.1955) rotate(0)"><path d="M5 0H10L5 5L0 10V5L5 0Z" fill="#dfdf20"/><path d="M20 15V20H15L20 15Z" fill="#dfdf20"/><path d="M20 5V10L15 15L10 20H5L20 5Z" fill="#dfdf20"/><path d="M15 0H20L5 15.0002L0 20.0002V15.0002L15 0Z" fill="#dfdf20"/></g><g transform="translate(389.71,5.49) scale(2.1955) rotate(0)"><path d="M5 0H10L5 5L0 10V5L5 0Z" fill="#dfdf20"/><path d="M20 15V20H15L20 15Z" fill="#dfdf20"/><path d="M20 5V10L15 15L10 20H5L20 5Z" fill="#dfdf20"/><path d="M15 0H20L5 15.0002L0 20.0002V15.0002L15 0Z" fill="#dfdf20"/></g><g transform="translate(444.6,5.49) scale(2.1955) rotate(0)"><path d="M5 0H10L5 5L0 10V5L5 0Z" fill="#FF3565"/><path d="M20 15V20H15L20 15Z" fill="#FF3565"/><path d="M20 5V10L15 15L10 20H5L20 5Z" fill="#FF3565"/><path d="M15 0H20L5 15.0002L0 20.0002V15.0002L15 0Z" fill="#FF3565"/></g><g transform="translate(499.49,5.49) scale(2.1955) rotate(0)"><path d="M5 0H10L5 5L0 10V5L5 0Z" fill="#183FE1"/><path d="M20 15V20H15L20 15Z" fill="#183FE1"/><path d="M20 5V10L15 15L10 20H5L20 5Z" fill="#183FE1"/><path d="M15 0H20L5 15.0002L0 20.0002V15.0002L15 0Z" fill="#183FE1"/></g><g transform="translate(554.38,5.49) scale(2.1955) rotate(0)"><path d="M5 0H10L5 5L0 10V5L5 0Z" fill="#FF3565"/><path d="M20 15V20H15L20 15Z" fill="#FF3565"/><path d="M20 5V10L15 15L10 20H5L20 5Z" fill="#FF3565"/><path d="M15 0H20L5 15.0002L0 20.0002V15.0002L15 0Z" fill="#FF3565"/></g><g transform="translate(609.27,5.49) scale(2.1955) rotate(0)"><path d="M5 0H10L5 5L0 10V5L5 0Z" fill="#dfdf20"/><path d="M20 15V20H15L20 15Z" fill="#dfdf20"/><path d="M20 5V10L15 15L10 20H5L20 5Z" fill="#dfdf20"/><path d="M15 0H20L5 15.0002L0 20.0002V15.0002L15 0Z" fill="#dfdf20"/></g><g transform="translate(5.49,60.38) scale(2.1955) rotate(0)"><path d="M5 0H10L5 5L0 10V5L5 0Z" fill="#FF3565"/><path d="M20 15V20H15L20 15Z" fill="#FF3565"/><path d="M20 5V10L15 15L10 20H5L20 5Z" fill="#FF3565"/><path d="M15 0H20L5 15.0002L0 20.0002V15.0002L15 0Z" fill="#FF3565"/></g><g transform="translate(60.38,60.38) scale(2.1955) rotate(0)"><path d="M5 0H10L5 5L0 10V5L5 0Z" fill="#FF3565"/><path d="M20 15V20H15L20 15Z" fill="#FF3565"/><path d="M20 5V10L15 15L10 20H5L20 5Z" fill="#FF3565"/><path d="M15 0H20L5 15.0002L0 20.0002V15.0002L15 0Z" fill="#FF3565"/></g><g transform="translate(115.27,60.38) scale(2.1955) rotate(0)"><path d="M5 0H10L5 5L0 10V5L5 0Z" fill="#dfdf20"/><path d="M20 15V20H15L20 15Z" fill="#dfdf20"/><path d="M20 5V10L15 15L10 20H5L20 5Z" fill="#dfdf20"/><path d="M15 0H20L5 15.0002L0 20.0002V15.0002L15 0Z" fill="#dfdf20"/></g><g transform="translate(170.16,60.38) scale(2.1955) rotate(0)"><path d="M5 0H10L5 5L0 10V5L5 0Z" fill="#20dfdf"/><path d="M20 15V20H15L20 15Z" fill="#20dfdf"/><path d="M20 5V10L15 15L10 20H5L20 5Z" fill="#20dfdf"/><path d="M15 0H20L5 15.0002L0 20.0002V15.0002L15 0Z" fill="#20dfdf"/></g><g transform="translate(225.04,60.38) scale(2.1955) rotate(0)"><path d="M5 0H10L5 5L0 10V5L5 0Z" fill="#20dfdf"/><path d="M20 15V20H15L20 15Z" fill="#20dfdf"/><path d="M20 5V10L15 15L10 20H5L20 5Z" fill="#20dfdf"/><path d="M15 0H20L5 15.0002L0 20.0002V15.0002L15 0Z" fill="#20dfdf"/></g><g transform="translate(279.93,60.38) scale(2.1955) rotate(0)"><path d="M5 0H10L5 5L0 10V5L5 0Z" fill="#20dfdf"/><path d="M20 15V20H15L20 15Z" fill="#20dfdf"/><path d="M20 5V10L15 15L10 20H5L20 5Z" fill="#20dfdf"/><path d="M15 0H20L5 15.0002L0 20.0002V15.0002L15 0Z" fill="#20dfdf"/></g><g transform="translate(334.82,60.38) scale(2.1955) rotate(0)"><path d="M5 0H10L5 5L0 10V5L5 0Z" fill="#183FE1"/><path d="M20 15V20H15L20 15Z" fill="#183FE1"/><path d="M20 5V10L15 15L10 20H5L20 5Z" fill="#183FE1"/><path d="M15 0H20L5 15.0002L0 20.0002V15.0002L15 0Z" fill="#183FE1"/></g><g transform="translate(389.71,60.38) scale(2.1955) rotate(0)"><path d="M5 0H10L5 5L0 10V5L5 0Z" fill="#FF3565"/><path d="M20 15V20H15L20 15Z" fill="#FF3565"/><path d="M20 5V10L15 15L10 20H5L20 5Z" fill="#FF3565"/><path d="M15 0H20L5 15.0002L0 20.0002V15.0002L15 0Z" fill="#FF3565"/></g><g transform="translate(444.6,60.38) scale(2.1955) rotate(0)"><path d="M5 0H10L5 5L0 10V5L5 0Z" fill="#FF3565"/><path d="M20 15V20H15L20 15Z" fill="#FF3565"/><path d="M20 5V10L15 15L10 20H5L20 5Z" fill="#FF3565"/><path d="M15 0H20L5 15.0002L0 20.0002V15.0002L15 0Z" fill="#FF3565"/></g><g transform="translate(499.49,60.38) scale(2.1955) rotate(0)"><path d="M5 0H10L5 5L0 10V5L5 0Z" fill="#183FE1"/><path d="M20 15V20H15L20 15Z" fill="#183FE1"/><path d="M20 5V10L15 15L10 20H5L20 5Z" fill="#183FE1"/><path d="M15 0H20L5 15.0002L0 20.0002V15.0002L15 0Z" fill="#183FE1"/></g><g transform="translate(554.38,60.38) scale(2.1955) rotate(0)"><path d="M5 0H10L5 5L0 10V5L5 0Z" fill="#183FE1"/><path d="M20 15V20H15L20 15Z" fill="#183FE1"/><path d="M20 5V10L15 15L10 20H5L20 5Z" fill="#183FE1"/><path d="M15 0H20L5 15.0002L0 20.0002V15.0002L15 0Z" fill="#183FE1"/></g><g transform="translate(609.27,60.38) scale(2.1955) rotate(0)"><path d="M5 0H10L5 5L0 10V5L5 0Z" fill="#183FE1"/><path d="M20 15V20H15L20 15Z" fill="#183FE1"/><path d="M20 5V10L15 15L10 20H5L20 5Z" fill="#183FE1"/><path d="M15 0H20L5 15.0002L0 20.0002V15.0002L15 0Z" fill="#183FE1"/></g><g transform="translate(5.49,115.27) scale(2.1955) rotate(0)"><path d="M5 0H10L5 5L0 10V5L5 0Z" fill="#20dfdf"/><path d="M20 15V20H15L20 15Z" fill="#20dfdf"/><path d="M20 5V10L15 15L10 20H5L20 5Z" fill="#20dfdf"/><path d="M15 0H20L5 15.0002L0 20.0002V15.0002L15 0Z" fill="#20dfdf"/></g><g transform="translate(60.38,115.27) scale(2.1955) rotate(0)"><path d="M5 0H10L5 5L0 10V5L5 0Z" fill="#183FE1"/><path d="M20 15V20H15L20 15Z" fill="#183FE1"/><path d="M20 5V10L15 15L10 20H5L20 5Z" fill="#183FE1"/><path d="M15 0H20L5 15.0002L0 20.0002V15.0002L15 0Z" fill="#183FE1"/></g><g transform="translate(115.27,115.27) scale(2.1955) rotate(0)"><path d="M5 0H10L5 5L0 10V5L5 0Z" fill="#183FE1"/><path d="M20 15V20H15L20 15Z" fill="#183FE1"/><path d="M20 5V10L15 15L10 20H5L20 5Z" fill="#183FE1"/><path d="M15 0H20L5 15.0002L0 20.0002V15.0002L15 0Z" fill="#183FE1"/></g><g transform="translate(170.16,115.27) scale(2.1955) rotate(0)"><path d="M5 0H10L5 5L0 10V5L5 0Z" fill="#20dfdf"/><path d="M20 15V20H15L20 15Z" fill="#20dfdf"/><path d="M20 5V10L15 15L10 20H5L20 5Z" fill="#20dfdf"/><path d="M15 0H20L5 15.0002L0 20.0002V15.0002L15 0Z" fill="#20dfdf"/></g><g transform="translate(225.04,115.27) scale(2.1955) rotate(0)"><path d="M5 0H10L5 5L0 10V5L5 0Z" fill="#dfdf20"/><path d="M20 15V20H15L20 15Z" fill="#dfdf20"/><path d="M20 5V10L15 15L10 20H5L20 5Z" fill="#dfdf20"/><path d="M15 0H20L5 15.0002L0 20.0002V15.0002L15 0Z" fill="#dfdf20"/></g><g transform="translate(279.93,115.27) scale(2.1955) rotate(0)"><path d="M5 0H10L5 5L0 10V5L5 0Z" fill="#FF3565"/><path d="M20 15V20H15L20 15Z" fill="#FF3565"/><path d="M20 5V10L15 15L10 20H5L20 5Z" fill="#FF3565"/><path d="M15 0H20L5 15.0002L0 20.0002V15.0002L15 0Z" fill="#FF3565"/></g><g transform="translate(334.82,115.27) scale(2.1955) rotate(0)"><path d="M5 0H10L5 5L0 10V5L5 0Z" fill="#dfdf20"/><path d="M20 15V20H15L20 15Z" fill="#dfdf20"/><path d="M20 5V10L15 15L10 20H5L20 5Z" fill="#dfdf20"/><path d="M15 0H20L5 15.0002L0 20.0002V15.0002L15 0Z" fill="#dfdf20"/></g><g transform="translate(389.71,115.27) scale(2.1955) rotate(0)"><path d="M5 0H10L5 5L0 10V5L5 0Z" fill="#FF3565"/><path d="M20 15V20H15L20 15Z" fill="#FF3565"/><path d="M20 5V10L15 15L10 20H5L20 5Z" fill="#FF3565"/><path d="M15 0H20L5 15.0002L0 20.0002V15.0002L15 0Z" fill="#FF3565"/></g><g transform="translate(444.6,115.27) scale(2.1955) rotate(0)"><path d="M5 0H10L5 5L0 10V5L5 0Z" fill="#20dfdf"/><path d="M20 15V20H15L20 15Z" fill="#20dfdf"/><path d="M20 5V10L15 15L10 20H5L20 5Z" fill="#20dfdf"/><path d="M15 0H20L5 15.0002L0 20.0002V15.0002L15 0Z" fill="#20dfdf"/></g><g transform="translate(499.49,115.27) scale(2.1955) rotate(0)"><path d="M5 0H10L5 5L0 10V5L5 0Z" fill="#dfdf20"/><path d="M20 15V20H15L20 15Z" fill="#dfdf20"/><path d="M20 5V10L15 15L10 20H5L20 5Z" fill="#dfdf20"/><path d="M15 0H20L5 15.0002L0 20.0002V15.0002L15 0Z" fill="#dfdf20"/></g><g transform="translate(554.38,115.27) scale(2.1955) rotate(0)"><path d="M5 0H10L5 5L0 10V5L5 0Z" fill="#FF3565"/><path d="M20 15V20H15L20 15Z" fill="#FF3565"/><path d="M20 5V10L15 15L10 20H5L20 5Z" fill="#FF3565"/><path d="M15 0H20L5 15.0002L0 20.0002V15.0002L15 0Z" fill="#FF3565"/></g><g transform="translate(609.27,115.27) scale(2.1955) rotate(0)"><path d="M5 0H10L5 5L0 10V5L5 0Z" fill="#183FE1"/><path d="M20 15V20H15L20 15Z" fill="#183FE1"/><path d="M20 5V10L15 15L10 20H5L20 5Z" fill="#183FE1"/><path d="M15 0H20L5 15.0002L0 20.0002V15.0002L15 0Z" fill="#183FE1"/></g><g transform="translate(5.49,170.16) scale(2.1955) rotate(0)"><path d="M5 0H10L5 5L0 10V5L5 0Z" fill="#20dfdf"/><path d="M20 15V20H15L20 15Z" fill="#20dfdf"/><path d="M20 5V10L15 15L10 20H5L20 5Z" fill="#20dfdf"/><path d="M15 0H20L5 15.0002L0 20.0002V15.0002L15 0Z" fill="#20dfdf"/></g><g transform="translate(60.38,170.16) scale(2.1955) rotate(0)"><path d="M5 0H10L5 5L0 10V5L5 0Z" fill="#183FE1"/><path d="M20 15V20H15L20 15Z" fill="#183FE1"/><path d="M20 5V10L15 15L10 20H5L20 5Z" fill="#183FE1"/><path d="M15 0H20L5 15.0002L0 20.0002V15.0002L15 0Z" fill="#183FE1"/></g><g transform="translate(115.27,170.16) scale(2.1955) rotate(0)"><path d="M5 0H10L5 5L0 10V5L5 0Z" fill="#183FE1"/><path d="M20 15V20H15L20 15Z" fill="#183FE1"/><path d="M20 5V10L15 15L10 20H5L20 5Z" fill="#183FE1"/><path d="M15 0H20L5 15.0002L0 20.0002V15.0002L15 0Z" fill="#183FE1"/></g><g transform="translate(170.16,170.16) scale(2.1955) rotate(0)"><path d="M5 0H10L5 5L0 10V5L5 0Z" fill="#183FE1"/><path d="M20 15V20H15L20 15Z" fill="#183FE1"/><path d="M20 5V10L15 15L10 20H5L20 5Z" fill="#183FE1"/><path d="M15 0H20L5 15.0002L0 20.0002V15.0002L15 0Z" fill="#183FE1"/></g><g transform="translate(225.04,170.16) scale(2.1955) rotate(0)"><path d="M5 0H10L5 5L0 10V5L5 0Z" fill="#183FE1"/><path d="M20 15V20H15L20 15Z" fill="#183FE1"/><path d="M20 5V10L15 15L10 20H5L20 5Z" fill="#183FE1"/><path d="M15 0H20L5 15.0002L0 20.0002V15.0002L15 0Z" fill="#183FE1"/></g><g transform="translate(279.93,170.16) scale(2.1955) rotate(0)"><path d="M5 0H10L5 5L0 10V5L5 0Z" fill="#FF3565"/><path d="M20 15V20H15L20 15Z" fill="#FF3565"/><path d="M20 5V10L15 15L10 20H5L20 5Z" fill="#FF3565"/><path d="M15 0H20L5 15.0002L0 20.0002V15.0002L15 0Z" fill="#FF3565"/></g><g transform="translate(334.82,170.16) scale(2.1955) rotate(0)"><path d="M5 0H10L5 5L0 10V5L5 0Z" fill="#dfdf20"/><path d="M20 15V20H15L20 15Z" fill="#dfdf20"/><path d="M20 5V10L15 15L10 20H5L20 5Z" fill="#dfdf20"/><path d="M15 0H20L5 15.0002L0 20.0002V15.0002L15 0Z" fill="#dfdf20"/></g><g transform="translate(389.71,170.16) scale(2.1955) rotate(0)"><path d="M5 0H10L5 5L0 10V5L5 0Z" fill="#183FE1"/><path d="M20 15V20H15L20 15Z" fill="#183FE1"/><path d="M20 5V10L15 15L10 20H5L20 5Z" fill="#183FE1"/><path d="M15 0H20L5 15.0002L0 20.0002V15.0002L15 0Z" fill="#183FE1"/></g><g transform="translate(444.6,170.16) scale(2.1955) rotate(0)"><path d="M5 0H10L5 5L0 10V5L5 0Z" fill="#183FE1"/><path d="M20 15V20H15L20 15Z" fill="#183FE1"/><path d="M20 5V10L15 15L10 20H5L20 5Z" fill="#183FE1"/><path d="M15 0H20L5 15.0002L0 20.0002V15.0002L15 0Z" fill="#183FE1"/></g><g transform="translate(499.49,170.16) scale(2.1955) rotate(0)"><path d="M5 0H10L5 5L0 10V5L5 0Z" fill="#FF3565"/><path d="M20 15V20H15L20 15Z" fill="#FF3565"/><path d="M20 5V10L15 15L10 20H5L20 5Z" fill="#FF3565"/><path d="M15 0H20L5 15.0002L0 20.0002V15.0002L15 0Z" fill="#FF3565"/></g><g transform="translate(554.38,170.16) scale(2.1955) rotate(0)"><path d="M5 0H10L5 5L0 10V5L5 0Z" fill="#20dfdf"/><path d="M20 15V20H15L20 15Z" fill="#20dfdf"/><path d="M20 5V10L15 15L10 20H5L20 5Z" fill="#20dfdf"/><path d="M15 0H20L5 15.0002L0 20.0002V15.0002L15 0Z" fill="#20dfdf"/></g><g transform="translate(609.27,170.16) scale(2.1955) rotate(0)"><path d="M5 0H10L5 5L0 10V5L5 0Z" fill="#20dfdf"/><path d="M20 15V20H15L20 15Z" fill="#20dfdf"/><path d="M20 5V10L15 15L10 20H5L20 5Z" fill="#20dfdf"/><path d="M15 0H20L5 15.0002L0 20.0002V15.0002L15 0Z" fill="#20dfdf"/></g><g transform="translate(5.49,225.04) scale(2.1955) rotate(0)"><path d="M5 0H10L5 5L0 10V5L5 0Z" fill="#20dfdf"/><path d="M20 15V20H15L20 15Z" fill="#20dfdf"/><path d="M20 5V10L15 15L10 20H5L20 5Z" fill="#20dfdf"/><path d="M15 0H20L5 15.0002L0 20.0002V15.0002L15 0Z" fill="#20dfdf"/></g><g transform="translate(60.38,225.04) scale(2.1955) rotate(0)"><path d="M5 0H10L5 5L0 10V5L5 0Z" fill="#dfdf20"/><path d="M20 15V20H15L20 15Z" fill="#dfdf20"/><path d="M20 5V10L15 15L10 20H5L20 5Z" fill="#dfdf20"/><path d="M15 0H20L5 15.0002L0 20.0002V15.0002L15 0Z" fill="#dfdf20"/></g><g transform="translate(115.27,225.04) scale(2.1955) rotate(0)"><path d="M5 0H10L5 5L0 10V5L5 0Z" fill="#20dfdf"/><path d="M20 15V20H15L20 15Z" fill="#20dfdf"/><path d="M20 5V10L15 15L10 20H5L20 5Z" fill="#20dfdf"/><path d="M15 0H20L5 15.0002L0 20.0002V15.0002L15 0Z" fill="#20dfdf"/></g><g transform="translate(170.16,225.04) scale(2.1955) rotate(0)"><path d="M5 0H10L5 5L0 10V5L5 0Z" fill="#dfdf20"/><path d="M20 15V20H15L20 15Z" fill="#dfdf20"/><path d="M20 5V10L15 15L10 20H5L20 5Z" fill="#dfdf20"/><path d="M15 0H20L5 15.0002L0 20.0002V15.0002L15 0Z" fill="#dfdf20"/></g><g transform="translate(225.04,225.04) scale(2.1955) rotate(0)"><path d="M5 0H10L5 5L0 10V5L5 0Z" fill="#FF3565"/><path d="M20 15V20H15L20 15Z" fill="#FF3565"/><path d="M20 5V10L15 15L10 20H5L20 5Z" fill="#FF3565"/><path d="M15 0H20L5 15.0002L0 20.0002V15.0002L15 0Z" fill="#FF3565"/></g><g transform="translate(279.93,225.04) scale(2.1955) rotate(0)"><path d="M5 0H10L5 5L0 10V5L5 0Z" fill="#FF3565"/><path d="M20 15V20H15L20 15Z" fill="#FF3565"/><path d="M20 5V10L15 15L10 20H5L20 5Z" fill="#FF3565"/><path d="M15 0H20L5 15.0002L0 20.0002V15.0002L15 0Z" fill="#FF3565"/></g><g transform="translate(334.82,225.04) scale(2.1955) rotate(0)"><path d="M5 0H10L5 5L0 10V5L5 0Z" fill="#dfdf20"/><path d="M20 15V20H15L20 15Z" fill="#dfdf20"/><path d="M20 5V10L15 15L10 20H5L20 5Z" fill="#dfdf20"/><path d="M15 0H20L5 15.0002L0 20.0002V15.0002L15 0Z" fill="#dfdf20"/></g><g transform="translate(389.71,225.04) scale(2.1955) rotate(0)"><path d="M5 0H10L5 5L0 10V5L5 0Z" fill="#20dfdf"/><path d="M20 15V20H15L20 15Z" fill="#20dfdf"/><path d="M20 5V10L15 15L10 20H5L20 5Z" fill="#20dfdf"/><path d="M15 0H20L5 15.0002L0 20.0002V15.0002L15 0Z" fill="#20dfdf"/></g><g transform="translate(444.6,225.04) scale(2.1955) rotate(0)"><path d="M5 0H10L5 5L0 10V5L5 0Z" fill="#183FE1"/><path d="M20 15V20H15L20 15Z" fill="#183FE1"/><path d="M20 5V10L15 15L10 20H5L20 5Z" fill="#183FE1"/><path d="M15 0H20L5 15.0002L0 20.0002V15.0002L15 0Z" fill="#183FE1"/></g><g transform="translate(499.49,225.04) scale(2.1955) rotate(0)"><path d="M5 0H10L5 5L0 10V5L5 0Z" fill="#20dfdf"/><path d="M20 15V20H15L20 15Z" fill="#20dfdf"/><path d="M20 5V10L15 15L10 20H5L20 5Z" fill="#20dfdf"/><path d="M15 0H20L5 15.0002L0 20.0002V15.0002L15 0Z" fill="#20dfdf"/></g><g transform="translate(554.38,225.04) scale(2.1955) rotate(0)"><path d="M5 0H10L5 5L0 10V5L5 0Z" fill="#20dfdf"/><path d="M20 15V20H15L20 15Z" fill="#20dfdf"/><path d="M20 5V10L15 15L10 20H5L20 5Z" fill="#20dfdf"/><path d="M15 0H20L5 15.0002L0 20.0002V15.0002L15 0Z" fill="#20dfdf"/></g><g transform="translate(609.27,225.04) scale(2.1955) rotate(0)"><path d="M5 0H10L5 5L0 10V5L5 0Z" fill="#dfdf20"/><path d="M20 15V20H15L20 15Z" fill="#dfdf20"/><path d="M20 5V10L15 15L10 20H5L20 5Z" fill="#dfdf20"/><path d="M15 0H20L5 15.0002L0 20.0002V15.0002L15 0Z" fill="#dfdf20"/></g><g transform="translate(5.49,279.93) scale(2.1955) rotate(0)"><path d="M5 0H10L5 5L0 10V5L5 0Z" fill="#183FE1"/><path d="M20 15V20H15L20 15Z" fill="#183FE1"/><path d="M20 5V10L15 15L10 20H5L20 5Z" fill="#183FE1"/><path d="M15 0H20L5 15.0002L0 20.0002V15.0002L15 0Z" fill="#183FE1"/></g><g transform="translate(60.38,279.93) scale(2.1955) rotate(0)"><path d="M5 0H10L5 5L0 10V5L5 0Z" fill="#20dfdf"/><path d="M20 15V20H15L20 15Z" fill="#20dfdf"/><path d="M20 5V10L15 15L10 20H5L20 5Z" fill="#20dfdf"/><path d="M15 0H20L5 15.0002L0 20.0002V15.0002L15 0Z" fill="#20dfdf"/></g><g transform="translate(115.27,279.93) scale(2.1955) rotate(0)"><path d="M5 0H10L5 5L0 10V5L5 0Z" fill="#FF3565"/><path d="M20 15V20H15L20 15Z" fill="#FF3565"/><path d="M20 5V10L15 15L10 20H5L20 5Z" fill="#FF3565"/><path d="M15 0H20L5 15.0002L0 20.0002V15.0002L15 0Z" fill="#FF3565"/></g><g transform="translate(170.16,279.93) scale(2.1955) rotate(0)"><path d="M5 0H10L5 5L0 10V5L5 0Z" fill="#dfdf20"/><path d="M20 15V20H15L20 15Z" fill="#dfdf20"/><path d="M20 5V10L15 15L10 20H5L20 5Z" fill="#dfdf20"/><path d="M15 0H20L5 15.0002L0 20.0002V15.0002L15 0Z" fill="#dfdf20"/></g><g transform="translate(225.04,279.93) scale(2.1955) rotate(0)"><path d="M5 0H10L5 5L0 10V5L5 0Z" fill="#183FE1"/><path d="M20 15V20H15L20 15Z" fill="#183FE1"/><path d="M20 5V10L15 15L10 20H5L20 5Z" fill="#183FE1"/><path d="M15 0H20L5 15.0002L0 20.0002V15.0002L15 0Z" fill="#183FE1"/></g><g transform="translate(279.93,279.93) scale(2.1955) rotate(0)"><path d="M5 0H10L5 5L0 10V5L5 0Z" fill="#FF3565"/><path d="M20 15V20H15L20 15Z" fill="#FF3565"/><path d="M20 5V10L15 15L10 20H5L20 5Z" fill="#FF3565"/><path d="M15 0H20L5 15.0002L0 20.0002V15.0002L15 0Z" fill="#FF3565"/></g><g transform="translate(334.82,279.93) scale(2.1955) rotate(0)"><path d="M5 0H10L5 5L0 10V5L5 0Z" fill="#FF3565"/><path d="M20 15V20H15L20 15Z" fill="#FF3565"/><path d="M20 5V10L15 15L10 20H5L20 5Z" fill="#FF3565"/><path d="M15 0H20L5 15.0002L0 20.0002V15.0002L15 0Z" fill="#FF3565"/></g><g transform="translate(389.71,279.93) scale(2.1955) rotate(0)"><path d="M5 0H10L5 5L0 10V5L5 0Z" fill="#183FE1"/><path d="M20 15V20H15L20 15Z" fill="#183FE1"/><path d="M20 5V10L15 15L10 20H5L20 5Z" fill="#183FE1"/><path d="M15 0H20L5 15.0002L0 20.0002V15.0002L15 0Z" fill="#183FE1"/></g><g transform="translate(444.6,279.93) scale(2.1955) rotate(0)"><path d="M5 0H10L5 5L0 10V5L5 0Z" fill="#183FE1"/><path d="M20 15V20H15L20 15Z" fill="#183FE1"/><path d="M20 5V10L15 15L10 20H5L20 5Z" fill="#183FE1"/><path d="M15 0H20L5 15.0002L0 20.0002V15.0002L15 0Z" fill="#183FE1"/></g><g transform="translate(499.49,279.93) scale(2.1955) rotate(0)"><path d="M5 0H10L5 5L0 10V5L5 0Z" fill="#20dfdf"/><path d="M20 15V20H15L20 15Z" fill="#20dfdf"/><path d="M20 5V10L15 15L10 20H5L20 5Z" fill="#20dfdf"/><path d="M15 0H20L5 15.0002L0 20.0002V15.0002L15 0Z" fill="#20dfdf"/></g><g transform="translate(554.38,279.93) scale(2.1955) rotate(0)"><path d="M5 0H10L5 5L0 10V5L5 0Z" fill="#dfdf20"/><path d="M20 15V20H15L20 15Z" fill="#dfdf20"/><path d="M20 5V10L15 15L10 20H5L20 5Z" fill="#dfdf20"/><path d="M15 0H20L5 15.0002L0 20.0002V15.0002L15 0Z" fill="#dfdf20"/></g><g transform="translate(609.27,279.93) scale(2.1955) rotate(0)"><path d="M5 0H10L5 5L0 10V5L5 0Z" fill="#183FE1"/><path d="M20 15V20H15L20 15Z" fill="#183FE1"/><path d="M20 5V10L15 15L10 20H5L20 5Z" fill="#183FE1"/><path d="M15 0H20L5 15.0002L0 20.0002V15.0002L15 0Z" fill="#183FE1"/></g><g transform="translate(5.49,334.82) scale(2.1955) rotate(0)"><path d="M5 0H10L5 5L0 10V5L5 0Z" fill="#FF3565"/><path d="M20 15V20H15L20 15Z" fill="#FF3565"/><path d="M20 5V10L15 15L10 20H5L20 5Z" fill="#FF3565"/><path d="M15 0H20L5 15.0002L0 20.0002V15.0002L15 0Z" fill="#FF3565"/></g><g transform="translate(60.38,334.82) scale(2.1955) rotate(0)"><path d="M5 0H10L5 5L0 10V5L5 0Z" fill="#183FE1"/><path d="M20 15V20H15L20 15Z" fill="#183FE1"/><path d="M20 5V10L15 15L10 20H5L20 5Z" fill="#183FE1"/><path d="M15 0H20L5 15.0002L0 20.0002V15.0002L15 0Z" fill="#183FE1"/></g><g transform="translate(115.27,334.82) scale(2.1955) rotate(0)"><path d="M5 0H10L5 5L0 10V5L5 0Z" fill="#20dfdf"/><path d="M20 15V20H15L20 15Z" fill="#20dfdf"/><path d="M20 5V10L15 15L10 20H5L20 5Z" fill="#20dfdf"/><path d="M15 0H20L5 15.0002L0 20.0002V15.0002L15 0Z" fill="#20dfdf"/></g><g transform="translate(170.16,334.82) scale(2.1955) rotate(0)"><path d="M5 0H10L5 5L0 10V5L5 0Z" fill="#dfdf20"/><path d="M20 15V20H15L20 15Z" fill="#dfdf20"/><path d="M20 5V10L15 15L10 20H5L20 5Z" fill="#dfdf20"/><path d="M15 0H20L5 15.0002L0 20.0002V15.0002L15 0Z" fill="#dfdf20"/></g><g transform="translate(225.04,334.82) scale(2.1955) rotate(0)"><path d="M5 0H10L5 5L0 10V5L5 0Z" fill="#183FE1"/><path d="M20 15V20H15L20 15Z" fill="#183FE1"/><path d="M20 5V10L15 15L10 20H5L20 5Z" fill="#183FE1"/><path d="M15 0H20L5 15.0002L0 20.0002V15.0002L15 0Z" fill="#183FE1"/></g><g transform="translate(279.93,334.82) scale(2.1955) rotate(0)"><path d="M5 0H10L5 5L0 10V5L5 0Z" fill="#dfdf20"/><path d="M20 15V20H15L20 15Z" fill="#dfdf20"/><path d="M20 5V10L15 15L10 20H5L20 5Z" fill="#dfdf20"/><path d="M15 0H20L5 15.0002L0 20.0002V15.0002L15 0Z" fill="#dfdf20"/></g><g transform="translate(334.82,334.82) scale(2.1955) rotate(0)"><path d="M5 0H10L5 5L0 10V5L5 0Z" fill="#FF3565"/><path d="M20 15V20H15L20 15Z" fill="#FF3565"/><path d="M20 5V10L15 15L10 20H5L20 5Z" fill="#FF3565"/><path d="M15 0H20L5 15.0002L0 20.0002V15.0002L15 0Z" fill="#FF3565"/></g><g transform="translate(389.71,334.82) scale(2.1955) rotate(0)"><path d="M5 0H10L5 5L0 10V5L5 0Z" fill="#dfdf20"/><path d="M20 15V20H15L20 15Z" fill="#dfdf20"/><path d="M20 5V10L15 15L10 20H5L20 5Z" fill="#dfdf20"/><path d="M15 0H20L5 15.0002L0 20.0002V15.0002L15 0Z" fill="#dfdf20"/></g><g transform="translate(444.6,334.82) scale(2.1955) rotate(0)"><path d="M5 0H10L5 5L0 10V5L5 0Z" fill="#183FE1"/><path d="M20 15V20H15L20 15Z" fill="#183FE1"/><path d="M20 5V10L15 15L10 20H5L20 5Z" fill="#183FE1"/><path d="M15 0H20L5 15.0002L0 20.0002V15.0002L15 0Z" fill="#183FE1"/></g><g transform="translate(499.49,334.82) scale(2.1955) rotate(0)"><path d="M5 0H10L5 5L0 10V5L5 0Z" fill="#dfdf20"/><path d="M20 15V20H15L20 15Z" fill="#dfdf20"/><path d="M20 5V10L15 15L10 20H5L20 5Z" fill="#dfdf20"/><path d="M15 0H20L5 15.0002L0 20.0002V15.0002L15 0Z" fill="#dfdf20"/></g><g transform="translate(554.38,334.82) scale(2.1955) rotate(0)"><path d="M5 0H10L5 5L0 10V5L5 0Z" fill="#20dfdf"/><path d="M20 15V20H15L20 15Z" fill="#20dfdf"/><path d="M20 5V10L15 15L10 20H5L20 5Z" fill="#20dfdf"/><path d="M15 0H20L5 15.0002L0 20.0002V15.0002L15 0Z" fill="#20dfdf"/></g><g transform="translate(609.27,334.82) scale(2.1955) rotate(0)"><path d="M5 0H10L5 5L0 10V5L5 0Z" fill="#183FE1"/><path d="M20 15V20H15L20 15Z" fill="#183FE1"/><path d="M20 5V10L15 15L10 20H5L20 5Z" fill="#183FE1"/><path d="M15 0H20L5 15.0002L0 20.0002V15.0002L15 0Z" fill="#183FE1"/></g><g transform="translate(5.49,389.71) scale(2.1955) rotate(0)"><path d="M5 0H10L5 5L0 10V5L5 0Z" fill="#20dfdf"/><path d="M20 15V20H15L20 15Z" fill="#20dfdf"/><path d="M20 5V10L15 15L10 20H5L20 5Z" fill="#20dfdf"/><path d="M15 0H20L5 15.0002L0 20.0002V15.0002L15 0Z" fill="#20dfdf"/></g><g transform="translate(60.38,389.71) scale(2.1955) rotate(0)"><path d="M5 0H10L5 5L0 10V5L5 0Z" fill="#dfdf20"/><path d="M20 15V20H15L20 15Z" fill="#dfdf20"/><path d="M20 5V10L15 15L10 20H5L20 5Z" fill="#dfdf20"/><path d="M15 0H20L5 15.0002L0 20.0002V15.0002L15 0Z" fill="#dfdf20"/></g><g transform="translate(115.27,389.71) scale(2.1955) rotate(0)"><path d="M5 0H10L5 5L0 10V5L5 0Z" fill="#dfdf20"/><path d="M20 15V20H15L20 15Z" fill="#dfdf20"/><path d="M20 5V10L15 15L10 20H5L20 5Z" fill="#dfdf20"/><path d="M15 0H20L5 15.0002L0 20.0002V15.0002L15 0Z" fill="#dfdf20"/></g><g transform="translate(170.16,389.71) scale(2.1955) rotate(0)"><path d="M5 0H10L5 5L0 10V5L5 0Z" fill="#183FE1"/><path d="M20 15V20H15L20 15Z" fill="#183FE1"/><path d="M20 5V10L15 15L10 20H5L20 5Z" fill="#183FE1"/><path d="M15 0H20L5 15.0002L0 20.0002V15.0002L15 0Z" fill="#183FE1"/></g><g transform="translate(225.04,389.71) scale(2.1955) rotate(0)"><path d="M5 0H10L5 5L0 10V5L5 0Z" fill="#20dfdf"/><path d="M20 15V20H15L20 15Z" fill="#20dfdf"/><path d="M20 5V10L15 15L10 20H5L20 5Z" fill="#20dfdf"/><path d="M15 0H20L5 15.0002L0 20.0002V15.0002L15 0Z" fill="#20dfdf"/></g><g transform="translate(279.93,389.71) scale(2.1955) rotate(0)"><path d="M5 0H10L5 5L0 10V5L5 0Z" fill="#20dfdf"/><path d="M20 15V20H15L20 15Z" fill="#20dfdf"/><path d="M20 5V10L15 15L10 20H5L20 5Z" fill="#20dfdf"/><path d="M15 0H20L5 15.0002L0 20.0002V15.0002L15 0Z" fill="#20dfdf"/></g><g transform="translate(334.82,389.71) scale(2.1955) rotate(0)"><path d="M5 0H10L5 5L0 10V5L5 0Z" fill="#183FE1"/><path d="M20 15V20H15L20 15Z" fill="#183FE1"/><path d="M20 5V10L15 15L10 20H5L20 5Z" fill="#183FE1"/><path d="M15 0H20L5 15.0002L0 20.0002V15.0002L15 0Z" fill="#183FE1"/></g><g transform="translate(389.71,389.71) scale(2.1955) rotate(0)"><path d="M5 0H10L5 5L0 10V5L5 0Z" fill="#dfdf20"/><path d="M20 15V20H15L20 15Z" fill="#dfdf20"/><path d="M20 5V10L15 15L10 20H5L20 5Z" fill="#dfdf20"/><path d="M15 0H20L5 15.0002L0 20.0002V15.0002L15 0Z" fill="#dfdf20"/></g><g transform="translate(444.6,389.71) scale(2.1955) rotate(0)"><path d="M5 0H10L5 5L0 10V5L5 0Z" fill="#FF3565"/><path d="M20 15V20H15L20 15Z" fill="#FF3565"/><path d="M20 5V10L15 15L10 20H5L20 5Z" fill="#FF3565"/><path d="M15 0H20L5 15.0002L0 20.0002V15.0002L15 0Z" fill="#FF3565"/></g><g transform="translate(499.49,389.71) scale(2.1955) rotate(0)"><path d="M5 0H10L5 5L0 10V5L5 0Z" fill="#dfdf20"/><path d="M20 15V20H15L20 15Z" fill="#dfdf20"/><path d="M20 5V10L15 15L10 20H5L20 5Z" fill="#dfdf20"/><path d="M15 0H20L5 15.0002L0 20.0002V15.0002L15 0Z" fill="#dfdf20"/></g><g transform="translate(554.38,389.71) scale(2.1955) rotate(0)"><path d="M5 0H10L5 5L0 10V5L5 0Z" fill="#183FE1"/><path d="M20 15V20H15L20 15Z" fill="#183FE1"/><path d="M20 5V10L15 15L10 20H5L20 5Z" fill="#183FE1"/><path d="M15 0H20L5 15.0002L0 20.0002V15.0002L15 0Z" fill="#183FE1"/></g><g transform="translate(609.27,389.71) scale(2.1955) rotate(0)"><path d="M5 0H10L5 5L0 10V5L5 0Z" fill="#20dfdf"/><path d="M20 15V20H15L20 15Z" fill="#20dfdf"/><path d="M20 5V10L15 15L10 20H5L20 5Z" fill="#20dfdf"/><path d="M15 0H20L5 15.0002L0 20.0002V15.0002L15 0Z" fill="#20dfdf"/></g><g transform="translate(5.49,444.6) scale(2.1955) rotate(0)"><path d="M5 0H10L5 5L0 10V5L5 0Z" fill="#dfdf20"/><path d="M20 15V20H15L20 15Z" fill="#dfdf20"/><path d="M20 5V10L15 15L10 20H5L20 5Z" fill="#dfdf20"/><path d="M15 0H20L5 15.0002L0 20.0002V15.0002L15 0Z" fill="#dfdf20"/></g><g transform="translate(60.38,444.6) scale(2.1955) rotate(0)"><path d="M5 0H10L5 5L0 10V5L5 0Z" fill="#20dfdf"/><path d="M20 15V20H15L20 15Z" fill="#20dfdf"/><path d="M20 5V10L15 15L10 20H5L20 5Z" fill="#20dfdf"/><path d="M15 0H20L5 15.0002L0 20.0002V15.0002L15 0Z" fill="#20dfdf"/></g><g transform="translate(115.27,444.6) scale(2.1955) rotate(0)"><path d="M5 0H10L5 5L0 10V5L5 0Z" fill="#dfdf20"/><path d="M20 15V20H15L20 15Z" fill="#dfdf20"/><path d="M20 5V10L15 15L10 20H5L20 5Z" fill="#dfdf20"/><path d="M15 0H20L5 15.0002L0 20.0002V15.0002L15 0Z" fill="#dfdf20"/></g><g transform="translate(170.16,444.6) scale(2.1955) rotate(0)"><path d="M5 0H10L5 5L0 10V5L5 0Z" fill="#dfdf20"/><path d="M20 15V20H15L20 15Z" fill="#dfdf20"/><path d="M20 5V10L15 15L10 20H5L20 5Z" fill="#dfdf20"/><path d="M15 0H20L5 15.0002L0 20.0002V15.0002L15 0Z" fill="#dfdf20"/></g><g transform="translate(225.04,444.6) scale(2.1955) rotate(0)"><path d="M5 0H10L5 5L0 10V5L5 0Z" fill="#FF3565"/><path d="M20 15V20H15L20 15Z" fill="#FF3565"/><path d="M20 5V10L15 15L10 20H5L20 5Z" fill="#FF3565"/><path d="M15 0H20L5 15.0002L0 20.0002V15.0002L15 0Z" fill="#FF3565"/></g><g transform="translate(279.93,444.6) scale(2.1955) rotate(0)"><path d="M5 0H10L5 5L0 10V5L5 0Z" fill="#dfdf20"/><path d="M20 15V20H15L20 15Z" fill="#dfdf20"/><path d="M20 5V10L15 15L10 20H5L20 5Z" fill="#dfdf20"/><path d="M15 0H20L5 15.0002L0 20.0002V15.0002L15 0Z" fill="#dfdf20"/></g><g transform="translate(334.82,444.6) scale(2.1955) rotate(0)"><path d="M5 0H10L5 5L0 10V5L5 0Z" fill="#20dfdf"/><path d="M20 15V20H15L20 15Z" fill="#20dfdf"/><path d="M20 5V10L15 15L10 20H5L20 5Z" fill="#20dfdf"/><path d="M15 0H20L5 15.0002L0 20.0002V15.0002L15 0Z" fill="#20dfdf"/></g><g transform="translate(389.71,444.6) scale(2.1955) rotate(0)"><path d="M5 0H10L5 5L0 10V5L5 0Z" fill="#FF3565"/><path d="M20 15V20H15L20 15Z" fill="#FF3565"/><path d="M20 5V10L15 15L10 20H5L20 5Z" fill="#FF3565"/><path d="M15 0H20L5 15.0002L0 20.0002V15.0002L15 0Z" fill="#FF3565"/></g><g transform="translate(444.6,444.6) scale(2.1955) rotate(0)"><path d="M5 0H10L5 5L0 10V5L5 0Z" fill="#183FE1"/><path d="M20 15V20H15L20 15Z" fill="#183FE1"/><path d="M20 5V10L15 15L10 20H5L20 5Z" fill="#183FE1"/><path d="M15 0H20L5 15.0002L0 20.0002V15.0002L15 0Z" fill="#183FE1"/></g><g transform="translate(499.49,444.6) scale(2.1955) rotate(0)"><path d="M5 0H10L5 5L0 10V5L5 0Z" fill="#FF3565"/><path d="M20 15V20H15L20 15Z" fill="#FF3565"/><path d="M20 5V10L15 15L10 20H5L20 5Z" fill="#FF3565"/><path d="M15 0H20L5 15.0002L0 20.0002V15.0002L15 0Z" fill="#FF3565"/></g><g transform="translate(554.38,444.6) scale(2.1955) rotate(0)"><path d="M5 0H10L5 5L0 10V5L5 0Z" fill="#20dfdf"/><path d="M20 15V20H15L20 15Z" fill="#20dfdf"/><path d="M20 5V10L15 15L10 20H5L20 5Z" fill="#20dfdf"/><path d="M15 0H20L5 15.0002L0 20.0002V15.0002L15 0Z" fill="#20dfdf"/></g><g transform="translate(609.27,444.6) scale(2.1955) rotate(0)"><path d="M5 0H10L5 5L0 10V5L5 0Z" fill="#20dfdf"/><path d="M20 15V20H15L20 15Z" fill="#20dfdf"/><path d="M20 5V10L15 15L10 20H5L20 5Z" fill="#20dfdf"/><path d="M15 0H20L5 15.0002L0 20.0002V15.0002L15 0Z" fill="#20dfdf"/></g></g></svg>